<svg width="25" height="24" viewBox="0 0 25 24" fill="none" xmlns="http://www.w3.org/2000/svg">
<path d="M14.1253 19.2027C13.9846 19.4452 13.7827 19.6465 13.5398 19.7864C13.2968 19.9264 13.0214 20 12.741 20C12.4607 20 12.1853 19.9264 11.9423 19.7864C11.6994 19.6465 11.4975 19.4452 11.3568 19.2027M17.5398 8.80085C17.5398 7.52759 17.0361 6.30647 16.1358 5.40614C15.2354 4.5058 14.0143 4 12.741 4C11.4678 4 10.2467 4.5058 9.34632 5.40614C8.44599 6.30647 7.94019 7.52759 7.94019 8.80085C7.94019 13 4.20013 13.7138 5.53976 15.5C6.87939 17.2862 18.5398 17.5 20.0398 15.5C21.3448 13.76 17.5398 13 17.5398 8.80085Z" stroke="#898D8F" stroke-width="1.5" stroke-linecap="round" stroke-linejoin="round"/>
</svg>
