<svg width="25" height="24" viewBox="0 0 25 24" fill="none" xmlns="http://www.w3.org/2000/svg">
<path d="M17.4856 20C18.0951 20 18.6571 19.6713 18.9559 19.1401V19.1401C19.2719 18.5784 19.2372 17.8849 18.7694 17.4417C17.7628 16.488 15.6478 15 12.25 15C8.85834 15 6.84708 16.4827 5.9041 17.4365C5.45946 17.8863 5.44264 18.5647 5.75271 19.1159V19.1159" stroke="#898D8F" stroke-width="1.5" stroke-linecap="round" stroke-linejoin="round"/>
<path d="M12.3611 11.1111C14.3248 11.1111 15.9167 9.51924 15.9167 7.55556C15.9167 5.59188 14.3248 4 12.3611 4C10.3974 4 8.80556 5.59188 8.80556 7.55556C8.80556 9.51924 10.3974 11.1111 12.3611 11.1111Z" stroke="#898D8F" stroke-width="1.5" stroke-linecap="round" stroke-linejoin="round"/>
</svg>
